<svg width="46" height="46" viewBox="0 0 46 46" fill="none" xmlns="http://www.w3.org/2000/svg">
<path d="M45.4381 23.5616L43.5214 21.645L29.157 7.28056C29.1551 7.27865 29.1531 7.27673 29.1503 7.27386L24.3548 2.47837L22.4381 0.561708C21.6906 -0.186748 20.4755 -0.186748 19.728 0.561708C18.9795 1.31016 18.9795 2.52341 19.728 3.27187L20.5665 4.11041L3.48425 31.441L3.2715 31.2283C2.524 30.4798 1.30884 30.4798 0.561342 31.2283C-0.187114 31.9767 -0.187114 33.19 0.561342 33.9384L2.478 35.8551L10.1446 43.5218L12.0613 45.4384C12.4351 45.8131 12.9257 46 13.4164 46C13.9071 46 14.3977 45.8131 14.7715 45.4384C15.5199 44.69 15.5199 43.4767 14.7715 42.7283L14.5587 42.5155L16.8788 41.0656C17.9273 43.4048 20.2742 45.0417 22.9997 45.0417C26.6989 45.0417 29.708 42.0325 29.708 38.3334C29.708 36.7099 29.1253 35.2082 28.1354 34.0295L41.8894 25.4333L42.7279 26.2718C43.1016 26.6465 43.5923 26.8334 44.083 26.8334C44.5736 26.8334 45.0643 26.6465 45.4381 26.2718C46.1865 25.5233 46.1865 24.3101 45.4381 23.5616ZM22.9997 41.2083C21.6398 41.2083 20.4985 40.2596 20.2004 38.9889L24.8148 36.1052C25.4703 36.6429 25.8747 37.4613 25.8747 38.3334C25.8747 39.9184 24.5848 41.2083 22.9997 41.2083ZM23.0227 32.7041L17.2114 36.3343C17.2066 36.3371 17.2037 36.341 17.1989 36.3439L11.7767 39.7325L6.26628 34.2221L23.3485 6.89148L25.3256 8.86852L16.6134 21.9363C16.0259 22.817 16.2645 24.0073 17.1453 24.5938C17.4711 24.8132 17.841 24.9167 18.2061 24.9167C18.8252 24.9167 19.4337 24.6168 19.8027 24.0628L28.0894 11.6333L39.1073 22.6512L23.0227 32.7041Z"/>
<path d="M35.5624 0.322127C34.6827 -0.265329 33.4924 -0.026705 32.905 0.854001L30.9883 3.72899C30.4009 4.6097 30.6395 5.79899 31.5202 6.38644C31.846 6.60494 32.2159 6.70844 32.5811 6.70844C33.2002 6.70844 33.8087 6.40849 34.1776 5.85457L36.0943 2.97958C36.6818 2.09887 36.4431 0.908626 35.5624 0.322127Z"/>
<path d="M45.6776 10.4373C45.0902 9.55565 43.8999 9.31702 43.0202 9.90544L40.1452 11.8221C39.2645 12.4096 39.0268 13.5988 39.6133 14.4796C39.9823 15.0344 40.5899 15.3334 41.2099 15.3334C41.575 15.3334 41.9449 15.2299 42.2708 15.0114L45.1458 13.0948C46.0265 12.5073 46.2641 11.318 45.6776 10.4373Z"/>
<path d="M44.4797 1.52008C43.7322 0.771626 42.5171 0.771626 41.7696 1.52008L36.9779 6.31174C36.2295 7.06019 36.2295 8.27344 36.9779 9.0219C37.3517 9.3966 37.8423 9.58348 38.333 9.58348C38.8237 9.58348 39.3143 9.3966 39.6881 9.0219L44.4797 4.23024C45.2282 3.48179 45.2282 2.26854 44.4797 1.52008Z"/>
</svg>
